<svg xmlns="http://www.w3.org/2000/svg" width="963" height="587" viewBox="145 334 963 587">
<g transform="translate(0,1254) scale(0.1,-0.1)">
  <path d="M3108 7473 c-559 -552 -1098 -1480 -1198 -2061 -205 -1190 1207 -2114 2088 -1368 150 127 388 418 461 563 46 92 44 100 -50 185 -323 291 -447 750 -319 1180 34 113 33 116 -95 309 -214 321 -675 1172 -675 1245 0 3 -9 19 -21 35 -37 52 -59 42 -191 -88z" fill="#1C82F7"/>
  <path d="M9262 7573 c-12 -10 -49 -79 -82 -153 -166 -368 -424 -834 -648 -1173 -103 -155 -104 -162 -71 -267 133 -423 22 -850 -303 -1172 -123 -121 -122 -119 -72 -214 137 -259 457 -589 679 -702 817 -413 1879 311 1879 1283 1 598 -514 1584 -1188 2273 -136 140 -159 154 -194 125z" fill="#15BE46"/>
  <path d="M6075 8763 c-677 -29 -1516 -283 -2094 -635 -144 -87 -152 -100 -123 -184 104 -297 351 -779 609 -1186 101 -160 119 -171 213 -123 598 303 1324 -5 1555 -658 43 -121 58 -118 111 23 233 629 905 919 1503 650 110 -50 128 -48 175 18 228 313 704 1248 682 1337 -12 47 -124 120 -391 255 -706 359 -1492 535 -2240 503z M6250 5328 c-47 -109 -37 -158 33 -158 71 0 83 38 44 145 -29 78 -47 82 -77 13z" fill="#FEB201"/>
</g>
  <circle cx="517.0" cy="690.1" r="80.0" fill="#EB7BB4"/>
  <circle cx="739.0" cy="690.1" r="80.0" fill="#F72824"/>
</svg>
