<svg xmlns="http://www.w3.org/2000/svg" width="1254" height="1254" viewBox="0 0 1254 1254">
<g transform="translate(0,1254) scale(0.1,-0.1)">
  <path d="M2383 9159 c-240 -119 -895 -1163 -1260 -2009 -627 -1453 -691 -2341 -232 -3219 616 -1179 1852 -1544 2354 -696 130 220 471 826 547 972 99 193 98 199 -83 372 -636 607 -759 1532 -300 2249 101 157 129 65 -356 1162 -198 447 -318 721 -398 913 -120 286 -152 316 -272 256z" fill="#1879F4"/>
  <path d="M10073 9154 c-44 -22 -55 -42 -171 -314 -55 -129 -160 -368 -232 -530 -312 -698 -383 -857 -475 -1060 -125 -274 -127 -292 -49 -421 461 -756 311 -1723 -357 -2294 -173 -148 -180 -115 144 -700 417 -752 445 -795 592 -900 871 -620 2265 516 2406 1961 96 984 -486 2578 -1414 3874 -259 361 -343 434 -444 384z" fill="#17B23B"/>
  <path d="M5830 10309 c-795 -43 -1703 -194 -2308 -385 -374 -118 -375 -121 -173 -592 292 -682 824 -1784 899 -1864 37 -40 79 -44 187 -19 745 171 1482 -228 1759 -952 64 -165 100 -157 179 41 188 469 593 808 1097 918 117 26 490 27 595 2 180 -43 178 -43 221 -22 49 24 42 12 365 649 247 489 398 806 627 1315 172 384 165 406 -176 524 -813 281 -2187 443 -3272 385z M6236 5547 c-46 -46 -105 -245 -90 -299 40 -137 272 -85 249 55 -30 178 -107 296 -159 244z" fill="#FEAB05"/>
</g>
  <circle cx="467.5" cy="665.5" r="108.8" fill="#E56CAA"/>
  <circle cx="784.6" cy="665.9" r="108.6" fill="#F2211C"/>
</svg>
